<svg width="64" height="64" viewBox="0 0 64 64" fill="none" xmlns="http://www.w3.org/2000/svg">
<g clip-path="url(#clip0_2102_184)">
<path fill-rule="evenodd" clip-rule="evenodd" d="M50 24C50.0084 27.8569 48.7694 31.613 46.468 34.708L32 54L17.532 34.708C15.838 32.4194 14.7112 29.7615 14.244 26.9527C13.7768 24.144 13.9826 21.2644 14.8445 18.5507C15.7064 15.8369 17.1998 13.3663 19.202 11.3418C21.2042 9.31736 23.6582 7.79677 26.3623 6.90495C29.0664 6.01314 31.9434 5.77555 34.7572 6.2117C37.5709 6.64785 40.2411 7.7453 42.5483 9.4139C44.8555 11.0825 46.734 13.2746 48.0294 15.8103C49.3247 18.3459 50.0001 21.1527 50 24ZM56 24C56 29.36 54.244 34.304 51.28 38.296L35.748 59L32 64L28.248 59L12.72 38.296C10.4587 35.2457 8.9535 31.7024 8.32794 27.9572C7.70239 24.2121 7.97438 20.3719 9.12156 16.7523C10.2687 13.1327 12.2584 9.83694 14.927 7.13581C17.5956 4.43468 20.867 2.40528 24.4725 1.21434C28.0779 0.0234114 31.9145 -0.295061 35.667 0.285094C39.4195 0.865248 42.9807 2.32747 46.0582 4.55162C49.1356 6.77577 51.6415 9.69838 53.3698 13.0793C55.098 16.4602 55.9995 20.203 56 24ZM32 32C34.1217 32 36.1566 31.1572 37.6569 29.6569C39.1571 28.1566 40 26.1217 40 24C40 21.8783 39.1571 19.8434 37.6569 18.3432C36.1566 16.8429 34.1217 16 32 16C29.8783 16 27.8434 16.8429 26.3431 18.3432C24.8429 19.8434 24 21.8783 24 24C24 26.1217 24.8429 28.1566 26.3431 29.6569C27.8434 31.1572 29.8783 32 32 32Z" fill="#ED1D24"/>
</g>
<defs>
<clipPath id="clip0_2102_184">
<rect width="64" height="64" fill="white"/>
</clipPath>
</defs>
</svg>
