<svg width="64" height="64" viewBox="0 0 64 64" fill="none" xmlns="http://www.w3.org/2000/svg">
<path fill-rule="evenodd" clip-rule="evenodd" d="M21.7923 42.2106C32.0457 52.464 41.547 53.5866 44.3363 53.6906C47.707 53.8133 51.147 51.0613 52.635 48.2426C50.2617 45.4586 47.171 43.2986 43.787 40.9573C41.7897 42.952 39.3283 46.6586 36.051 45.3306C34.187 44.5813 29.5843 42.4613 25.563 38.4373C21.5417 34.4133 19.4217 29.8133 18.667 27.952C17.339 24.6693 21.0563 22.2026 23.0537 20.2053C20.7123 16.7653 18.5897 13.5946 15.811 11.3413C12.9523 12.8346 10.1843 16.248 10.3097 19.664C10.4137 22.4533 11.5363 31.9546 21.7923 42.2106ZM44.139 59.0213C40.299 58.88 29.4163 57.376 18.019 45.9813C6.62433 34.584 5.12299 23.704 4.97899 19.8613C4.76566 14.0053 9.25099 8.3173 14.4323 6.09596C15.0563 5.82654 15.7395 5.72397 16.4151 5.7983C17.0906 5.87263 17.7352 6.12132 18.2857 6.51996C22.5737 9.64796 25.531 14.3866 28.0723 18.0986C28.601 18.8705 28.8432 19.8029 28.757 20.7345C28.6708 21.6661 28.2616 22.5382 27.6003 23.2L23.9843 26.8186C24.8243 28.672 26.5337 31.8666 29.3337 34.6666C32.1337 37.4666 35.3283 39.176 37.1843 40.016L40.7977 36.4C41.4612 35.7359 42.3371 35.3263 43.2722 35.2429C44.2072 35.1595 45.1418 35.4077 45.9123 35.944C49.699 38.568 54.147 41.4826 57.3897 45.6346C57.8207 46.189 58.0948 46.8491 58.1835 47.5457C58.2722 48.2423 58.1721 48.9499 57.8937 49.5946C55.6617 54.8026 50.0137 59.2373 44.139 59.0213Z" fill="#ED1D24"/>
</svg>
