<svg width="51" height="36" viewBox="0 0 51 36" fill="none" xmlns="http://www.w3.org/2000/svg">
<path d="M13.3604 27.0427C13.3604 26.4989 13.3507 26.0522 13.3604 25.6055C13.3604 25.4501 13.2925 25.4016 13.1565 25.4016C12.9526 25.4016 12.7584 25.4016 12.5641 25.4016C12.3991 25.4113 12.3214 25.3433 12.3311 25.1782C12.3311 25.0714 12.3311 24.9743 12.3311 24.8675C12.3311 24.7412 12.3991 24.6344 12.5059 24.5762C13.3313 24.0615 14.1567 23.5468 14.9724 23.0224C15.0598 22.9545 15.1666 22.9253 15.2735 22.9253C15.4094 22.935 15.5454 22.9253 15.6813 22.9253C16.0018 22.9253 16.0309 22.9447 16.0309 23.2846C16.0309 23.5274 16.0309 23.7605 16.0309 24.0032C16.0309 24.246 16.0697 24.2848 16.3222 24.2848H17.3904C17.6235 24.2848 17.6817 24.3431 17.6817 24.5665C17.6817 24.7218 17.6817 24.8772 17.6817 25.0423C17.7012 25.489 17.5749 25.4793 17.2059 25.5181C16.8952 25.5375 16.5747 25.5375 16.2543 25.5181C16.0892 25.5181 16.0212 25.5861 16.0212 25.7512C16.0309 26.4503 16.0212 27.1495 16.0212 27.8487C16.0309 28.2468 16.429 28.6547 16.8952 28.4119C16.934 28.3925 16.9826 28.3828 17.0214 28.3537C17.1865 28.2566 17.371 28.1497 17.5361 28.3051C17.7012 28.4605 17.74 28.7033 17.672 28.9363C17.5943 29.2179 17.3904 29.3927 17.1574 29.5481C16.7107 29.8685 16.1863 30.0531 15.6328 30.0919C15.0501 30.1404 14.5354 30.0433 14.0596 29.7229C13.6518 29.4413 13.4478 29.0334 13.3701 28.5479C13.3119 28.0235 13.3896 27.4894 13.3604 27.0427Z" fill="#EC2227"/>
<path d="M26.2175 30.1016C25.6252 30.1113 25.1008 30.0822 24.5958 29.9365C24.2074 29.8297 24.0617 29.6452 24.0714 29.3247C24.0617 29.1499 24.1588 28.9849 24.3142 28.9072C24.7221 28.7227 24.7415 28.3634 24.7706 28.0138C24.8095 27.4797 24.8289 26.9553 24.8192 26.4212C24.8192 26.1784 24.7318 26.0134 24.4987 25.8968C24.0132 25.6735 23.984 25.2753 24.4405 24.984C24.8677 24.7024 25.3533 24.5859 25.8291 24.4693C26.169 24.3819 26.5186 24.3431 26.8682 24.3431C27.1983 24.3431 27.2275 24.4305 27.2857 24.7121C27.3051 24.8189 27.3051 24.9258 27.3343 25.0326C27.3537 25.1103 27.3634 25.1977 27.4702 25.2074C27.5479 25.2171 27.6256 25.1782 27.6742 25.1103C27.8587 24.8772 28.0335 24.6441 28.3151 24.4888C28.9754 24.1392 29.8202 24.4208 30.0824 25.2268C30.2961 25.8677 29.7523 26.8582 28.9851 26.9456C28.4899 27.0039 28.1694 26.7902 27.8392 26.5086C27.8004 26.4698 27.7615 26.4309 27.7227 26.3921C27.5673 26.2658 27.3731 26.3241 27.344 26.5183C27.276 26.9942 27.2663 27.4797 27.3343 27.9555C27.3634 28.1109 27.3246 28.276 27.3634 28.4411C27.4022 28.6061 27.5285 28.7421 27.6936 28.7809C27.7615 28.8004 27.8392 28.8198 27.9072 28.8392C28.0917 28.9266 28.2665 29.0237 28.2859 29.2665C28.3151 29.519 28.1791 29.7714 27.9461 29.8783C27.713 29.9948 27.4508 30.0531 27.1886 30.0433C26.8293 30.0628 26.4894 30.1502 26.2175 30.1016Z" fill="#EC2227"/>
<path d="M25.0522 11.8259C25.0522 11.787 25.0911 11.7482 25.1299 11.7482C25.3727 11.6996 25.6058 11.622 25.8291 11.5151C25.9262 11.486 26.0233 11.4666 26.1301 11.4569C26.0622 11.5831 25.9165 11.5831 25.8097 11.6122C25.5475 11.6608 25.3338 11.855 25.0522 11.8259Z" fill="#5F9DCB"/>
<path d="M21.469 17.3028C21.3427 17.4484 21.1679 17.4096 21.0028 17.4193C21.1485 17.3028 21.3136 17.3028 21.469 17.3028Z" fill="#5E9CCB"/>
<path d="M21.3039 21.9154C21.4592 21.9154 21.6146 21.8668 21.7214 22.0222C21.5758 22.0416 21.4204 22.0028 21.3039 21.9154Z" fill="#639ECC"/>
<path d="M22.7508 17.06C22.6537 17.1862 22.508 17.1765 22.3623 17.1668C22.4692 17.0794 22.6148 17.0309 22.7508 17.06Z" fill="#609DCB"/>
<path d="M22.1293 17.1862C22.0322 17.3416 21.8865 17.2931 21.7409 17.2931C21.8574 17.1862 22.003 17.2154 22.1293 17.1862Z" fill="#5F9CCB"/>
<path d="M20.9737 16.0112C21.0611 15.8753 21.1873 15.9044 21.3136 15.9044C21.2262 16.0307 21.0805 15.9627 20.9737 16.0112Z" fill="#E78E78"/>
<path d="M14.0111 18.3807L14.0985 18.371C14.1761 18.4001 14.2732 18.3807 14.3121 18.4875C14.2053 18.4487 14.079 18.4972 14.0111 18.3807Z" fill="#77A7D0"/>
<path d="M29.8688 19.9732C29.8591 19.8276 29.995 19.8276 30.0727 19.7693C30.063 19.8956 29.9465 19.915 29.8688 19.9732Z" fill="#6FA4CF"/>
<path d="M23.6539 12.3114C23.6733 12.1755 23.7801 12.1949 23.8675 12.2046C23.819 12.2726 23.7413 12.3114 23.6539 12.3114Z" fill="#629DCB"/>
<path d="M38.6085 6.19362C38.6376 6.11594 38.6959 6.05767 38.7736 6.02854C38.7445 6.11594 38.7153 6.19362 38.6085 6.19362Z" fill="#F2C3B2"/>
<path d="M33.0539 15.9918C33.0636 15.9044 33.0539 15.8073 33.1705 15.7782C33.1608 15.8656 33.1219 15.9433 33.0539 15.9918Z" fill="#69A0CD"/>
<path d="M35.5496 5.84403C35.5302 5.97999 35.4234 5.95085 35.336 5.97027C35.3942 5.9023 35.4622 5.86346 35.5496 5.84403Z" fill="#609DCB"/>
<path d="M20.2357 3.75621L20.226 3.8339L20.022 3.88245C20.0706 3.80477 20.1483 3.75621 20.2357 3.75621Z" fill="#E99580"/>
<path d="M19.9929 3.88245C19.9541 3.97956 19.8667 3.97956 19.789 4.00869C19.8181 3.93101 19.9055 3.88245 19.9929 3.88245Z" fill="#E8907B"/>
<path d="M26.4215 12.5736L26.3632 12.5542C26.4409 12.5154 26.5283 12.4862 26.6254 12.4862C26.5963 12.6027 26.4991 12.5542 26.4215 12.5736Z" fill="#E88A74"/>
<path d="M30.3252 9.72835C30.3349 9.62153 30.4029 9.60211 30.4903 9.61182C30.4417 9.66038 30.4223 9.73806 30.3252 9.72835Z" fill="#649ECB"/>
<path d="M28.888 14.71C28.8589 14.8265 28.7618 14.8168 28.6744 14.8265C28.7132 14.7488 28.8006 14.71 28.888 14.71Z" fill="#68A0CC"/>
<path d="M34.899 6.23247C34.8796 6.32957 34.7922 6.31986 34.7242 6.349C34.7436 6.27131 34.8213 6.22276 34.899 6.23247Z" fill="#78A9D2"/>
<path d="M28.3927 20.9152C28.4122 20.8181 28.4899 20.8084 28.5675 20.8084C28.5287 20.8666 28.4607 20.9152 28.3927 20.9152Z" fill="#659FCD"/>
<path d="M28.1403 21.0414C28.1694 20.9249 28.2568 20.9249 28.3539 20.9249C28.2956 20.9832 28.218 21.022 28.1403 21.0414Z" fill="#679FCC"/>
<path d="M28.1403 10.7091C28.1597 10.612 28.2374 10.6023 28.3151 10.6023C28.2859 10.68 28.2082 10.6897 28.1403 10.7091Z" fill="#6FA3CE"/>
<path d="M32.6752 16.7298C32.6752 16.6522 32.6946 16.5745 32.7917 16.555C32.7917 16.6327 32.7432 16.7007 32.6752 16.7298Z" fill="#6DA2CE"/>
<path d="M32.9568 11.8647C32.9665 11.923 32.918 11.9813 32.8597 11.9813C32.85 11.9813 32.8403 11.9813 32.8306 11.9813C32.8306 11.9133 32.8888 11.8647 32.9568 11.8647Z" fill="#6CA2CD"/>
<path d="M35.0155 9.34963C35.0349 9.29137 35.0932 9.25252 35.1515 9.2331C35.1418 9.33021 35.1029 9.35934 35.0155 9.34963Z" fill="#F1BAA9"/>
<path d="M29.7134 11.1267C29.694 11.2238 29.6163 11.1947 29.5483 11.2044C29.5775 11.1461 29.6454 11.117 29.7134 11.1267Z" fill="#E88E78"/>
<path d="M31.3157 18.6234C31.3351 18.5652 31.3837 18.5166 31.4322 18.4972C31.4419 18.5846 31.4031 18.6234 31.3157 18.6234Z" fill="#BED1E6"/>
<path d="M28.8394 20.6627C28.8394 20.6044 28.888 20.5559 28.9463 20.5559C28.956 20.5559 28.9657 20.5559 28.9754 20.5559C28.9657 20.6336 28.8977 20.6433 28.8394 20.6627Z" fill="#649ECC"/>
<path d="M37.7831 6.97049L37.8511 6.95107C37.8608 7.02875 37.8122 7.04817 37.754 7.04817H37.7248C37.7151 7.00933 37.754 6.98991 37.7831 6.97049Z" fill="#F1BCAB"/>
<path d="M31.8498 7.7959C31.8498 7.87359 31.7915 7.8833 31.7333 7.87359C31.743 7.82504 31.7915 7.78619 31.8401 7.78619C31.8401 7.7959 31.8498 7.7959 31.8498 7.7959Z" fill="#7AA9D1"/>
<path d="M35.3068 5.97999C35.3068 6.05767 35.2486 6.06738 35.1903 6.06738C35.2 5.99941 35.2486 5.97999 35.3068 5.97999Z" fill="#68A0CD"/>
<path d="M23.7219 26.1979C23.5276 25.4598 23.0518 24.9258 22.3915 24.5956C21.7506 24.2751 21.0028 24.1974 20.3134 24.3819C19.5559 24.547 18.8859 24.9937 18.4392 25.6346C18.0119 26.2367 17.8468 26.9747 17.9731 27.6933C18.0508 28.2857 18.3129 28.8392 18.7402 29.2665C19.42 29.9462 20.2648 30.189 21.2165 30.1113C21.77 30.0725 22.3041 29.9074 22.7799 29.6161C23.1101 29.4121 23.4111 29.1888 23.5276 28.7906C23.5762 28.6159 23.4888 28.3537 23.2557 28.1594C23.0907 28.0235 22.9547 28.14 22.8285 28.2177C22.4206 28.509 21.9156 28.6353 21.4107 28.577C21.0708 28.5382 20.4979 28.1692 20.3813 27.7516C20.3134 27.5088 20.3716 27.4311 20.6241 27.4311C21.0417 27.4311 21.4592 27.4311 21.8768 27.4311C22.2944 27.4311 22.7314 27.4311 23.1489 27.4311C23.3528 27.4408 23.5471 27.3243 23.6345 27.1398C23.8093 26.8291 23.7995 26.5183 23.7219 26.1979ZM21.265 26.3532H20.6921C20.3813 26.3532 20.2454 26.2076 20.3231 25.9065C20.4008 25.5667 20.6338 25.3045 21.0223 25.3142C21.2844 25.3239 21.5466 25.5181 21.634 25.9065C21.6729 26.1008 21.5466 26.295 21.3524 26.3435C21.3233 26.3532 21.2942 26.3532 21.265 26.3532Z" fill="#EC2227"/>
<path d="M15.827 8.49508C15.8755 8.48537 15.9144 8.43682 15.9144 8.38826C16.0018 8.32029 16.0697 8.23289 16.128 8.12607C16.196 8.0581 16.2834 7.99012 16.2931 7.8833C16.3514 7.8833 16.4096 7.83475 16.4096 7.77648C16.4096 7.76677 16.4096 7.75706 16.4096 7.74735C16.4485 7.70851 16.5359 7.70851 16.5359 7.63082C16.6136 7.62111 16.6524 7.58227 16.6524 7.50458L17.5555 6.55292C17.6429 6.55292 17.6817 6.49466 17.7303 6.43639C17.7788 6.39755 17.7886 6.33928 17.8565 6.30044C18.0799 6.15478 18.2838 5.97027 18.4974 5.80519C18.5557 5.78577 18.6237 5.77606 18.6334 5.69837C18.7791 5.64982 18.9053 5.56242 19.0024 5.44589L19.0315 5.43618C19.0801 5.4556 19.1384 5.42647 19.1578 5.37792V5.36821L19.2452 5.31965C19.2937 5.33907 19.3423 5.30994 19.3617 5.26139C19.3617 5.25168 19.3714 5.24196 19.3714 5.23225L19.6627 5.06717C19.7599 5.06717 19.857 5.02833 19.9055 4.94093C20.0415 4.95064 20.0997 4.80498 20.2357 4.81469C20.3231 4.83411 20.4105 4.78556 20.4493 4.69816C20.595 4.69816 20.7406 4.64961 20.8572 4.56221C21.1582 4.52337 21.4301 4.36799 21.7311 4.31944C22.0322 4.27088 22.3526 4.1932 22.6634 4.13493C22.6828 4.13493 22.7022 4.13493 22.7216 4.12522C22.9256 4.16407 23.1295 4.12522 23.3237 4.1058C24.0714 4.03783 24.8095 4.12522 25.5378 4.24175C25.5669 4.25146 25.596 4.26117 25.6252 4.26117L26.4894 4.44568C26.4991 4.45539 26.5089 4.45539 26.5186 4.45539C26.606 4.58163 26.7419 4.54279 26.8584 4.57192C26.9944 4.65932 27.1401 4.69816 27.3051 4.69816C27.3731 4.79527 27.4896 4.83411 27.6062 4.81469C27.6159 4.8244 27.6256 4.8244 27.6353 4.8244C27.6839 4.9118 27.7907 4.96035 27.8878 4.94093L28.6258 5.31965C28.7035 5.37792 28.7618 5.4556 28.8686 5.44589C28.9754 5.55271 29.1016 5.64011 29.2376 5.68866C29.4221 5.9023 29.5289 5.9023 29.7037 5.67895C29.7814 5.66924 29.8299 5.64011 29.8202 5.55271C29.8591 5.50416 29.9076 5.46531 29.9465 5.41676C30.0242 5.37792 30.0921 5.32936 30.0727 5.22254C30.131 5.08659 30.0047 5.05746 29.9465 5.00891C29.8202 4.90209 29.6843 4.81469 29.5483 4.72729C29.5095 4.66903 29.4706 4.59134 29.3833 4.61076C29.0142 4.35828 28.6549 4.1058 28.2374 3.95043C28.0917 3.8339 27.9461 3.72708 27.7421 3.73679C27.5965 3.62026 27.4508 3.4746 27.2372 3.50373C27.2275 3.49402 27.2177 3.49402 27.208 3.49402C27.1401 3.40662 27.0235 3.35807 26.907 3.37749C26.7516 3.32894 26.606 3.21241 26.4215 3.25125C26.2855 3.18328 26.1593 3.10559 26.0039 3.13472C25.3533 2.96964 24.6735 2.89195 24.0035 2.90166C23.5082 2.90166 23.013 2.94051 22.5177 3.0279C22.207 3.07646 21.8865 3.10559 21.5952 3.26096C21.469 3.24154 21.3427 3.29009 21.2553 3.37749L21.1097 3.3872C21.0125 3.3872 20.964 3.44547 20.896 3.50373L20.7795 3.51344C20.6824 3.49402 20.663 3.58142 20.6144 3.62997C20.459 3.58142 20.3716 3.71737 20.2454 3.75621C20.2357 3.76592 20.226 3.77563 20.226 3.79506C20.158 3.80477 20.09 3.8339 20.0415 3.87274L20.0026 3.88245C19.9444 3.94072 19.857 3.94072 19.7987 4.00869C19.4394 4.1932 19.1092 4.41655 18.7888 4.66903C18.5363 4.86324 18.3032 5.07688 18.0605 5.28081C17.9731 5.33907 17.8857 5.40705 17.8274 5.49445L17.7788 5.57213C17.6429 5.68866 17.5264 5.82461 17.439 5.97999C17.4293 5.97999 17.4195 5.97998 17.4195 5.9897C17.3419 5.9897 17.3322 6.04796 17.3224 6.10623C17.1379 6.29073 16.9729 6.50437 16.8369 6.72772C16.7398 6.82482 16.6136 6.90251 16.5941 7.05788C16.5844 7.06759 16.5844 7.07731 16.5844 7.09673C16.5456 7.14528 16.4582 7.17441 16.4679 7.27152L16.2931 7.55313C16.2348 7.57256 16.2057 7.62111 16.2154 7.67937L16.0406 7.99983L15.9241 8.17463C15.8755 8.2426 15.8367 8.32029 15.8367 8.40768C15.7202 8.44653 15.7687 8.53392 15.7396 8.62132C15.8076 8.58248 15.8076 8.53393 15.827 8.49508Z" fill="#EC2227"/>
<path d="M40.6963 3.62026C40.6575 3.57171 40.6284 3.61055 40.5992 3.63968L40.405 3.86303C40.3273 3.89216 40.2982 3.96985 40.2496 4.0184L40.0845 4.1932L39.9583 4.31944L39.1426 5.10601C39.0843 5.12543 39.0164 5.12543 39.0067 5.21283C38.9678 5.23225 38.8901 5.22254 38.929 5.30023L38.8901 5.33907C38.8416 5.32936 38.7833 5.35849 38.7736 5.40705C38.7736 5.41676 38.7736 5.41676 38.7736 5.42647C38.6376 5.51387 38.5211 5.61097 38.4046 5.7275C38.356 5.75664 38.2783 5.75664 38.2686 5.83432C38.1812 5.83432 38.1715 5.92172 38.1133 5.97027C38.0161 5.95085 38.0356 6.05767 37.987 6.0868C37.7734 6.15478 37.6277 6.32957 37.4529 6.46553C37.3655 6.46553 37.3267 6.52379 37.2878 6.58205C37.0548 6.73743 36.8411 6.90251 36.6275 7.07731C36.5304 7.08702 36.4527 7.14528 36.4236 7.24239L36.3847 7.28123C36.3265 7.29094 36.2585 7.29094 36.2294 7.36863L36.1808 7.41718C36.1323 7.40747 36.074 7.4366 36.0643 7.48516V7.49487L35.8118 7.65995C35.7147 7.64053 35.6953 7.72793 35.6467 7.77648C35.5011 7.82504 35.3748 7.91243 35.2777 8.02896C35.1806 8.00954 35.1515 8.08723 35.1029 8.14549C34.9961 8.13578 34.967 8.21347 34.9087 8.27173C34.8019 8.2426 34.763 8.33 34.7048 8.38826C34.6562 8.38826 34.6077 8.36884 34.5785 8.42711C34.5688 8.43682 34.5494 8.45624 34.5397 8.46595C34.394 8.56306 34.1998 8.6019 34.0833 8.74756C33.9862 8.75727 33.9085 8.80583 33.8502 8.88351C33.792 8.91265 33.7143 8.93207 33.6851 9.00004C33.5783 9.00004 33.5395 9.11657 33.4424 9.12628C33.3453 9.13599 33.2967 9.19426 33.2384 9.24281C33.151 9.2331 33.1219 9.28166 33.1025 9.34963C33.0054 9.33992 32.9083 9.38848 32.8597 9.47587C32.7723 9.46616 32.6849 9.51472 32.6461 9.60211C32.6364 9.60211 32.6267 9.60211 32.6169 9.61182C32.5295 9.61182 32.4519 9.66038 32.413 9.72835C32.2576 9.72835 32.1508 9.83517 32.044 9.93228L31.9566 9.98083C31.8789 10.0003 31.7818 10.0003 31.743 10.0877C31.6459 10.0974 31.5585 10.1459 31.4905 10.2139L30.9661 10.4761C30.869 10.4761 30.8204 10.5441 30.7525 10.5926C30.6554 10.5926 30.5874 10.68 30.5097 10.7189C30.3738 10.68 30.3349 10.8354 30.2184 10.8451C30.1407 10.8451 30.0727 10.8936 30.0436 10.9519C30.0339 10.9519 30.0242 10.9519 30.0145 10.9616C29.9173 10.9519 29.8202 11.0005 29.7717 11.0879C29.762 11.0879 29.7426 11.0879 29.7328 11.0879C29.6843 11.1364 29.6163 11.1267 29.5678 11.1656L29.5192 11.2044C29.4221 11.2044 29.325 11.2432 29.257 11.3209C29.1987 11.3209 29.1405 11.3598 29.0919 11.3986C29.0628 11.3889 29.0337 11.3889 29.024 11.418C29.024 11.418 29.024 11.4277 29.0142 11.4277C28.82 11.4666 28.6355 11.554 28.4801 11.6899C28.3442 11.6608 28.2568 11.7676 28.15 11.8162L27.577 12.0687C27.4799 12.0492 27.3731 12.0978 27.3246 12.1852C27.3148 12.1852 27.2954 12.1852 27.2857 12.1949C27.1789 12.1658 27.0818 12.2143 27.0332 12.3114C26.8876 12.3114 26.7613 12.3891 26.6351 12.4474C26.5768 12.5056 26.4894 12.4959 26.4215 12.5154C26.4117 12.5056 26.3826 12.5056 26.3729 12.5154C26.2758 12.6027 26.1204 12.5445 26.0427 12.6804L25.3144 12.9426C25.1979 12.9426 25.1202 13.0106 25.0231 13.0592C24.7706 13.1271 24.5279 13.2145 24.2851 13.3116C24.2171 13.3019 24.1491 13.3116 24.0909 13.3408C23.8675 13.4185 23.6442 13.4864 23.4208 13.5641C23.2849 13.5738 23.1586 13.6127 23.0421 13.6806L22.9644 13.6904C22.8479 13.7195 22.7119 13.6904 22.6148 13.7972C22.6051 13.7972 22.5954 13.7972 22.5857 13.8069C22.3332 13.836 22.0904 13.904 21.8574 13.9914C21.8477 13.9914 21.838 13.9914 21.838 14.0011C21.4204 14.0788 21.0125 14.1759 20.6047 14.2924H20.527C20.3522 14.2827 20.1774 14.3216 20.022 14.409L19.789 14.4187C19.6142 14.409 19.4394 14.4478 19.284 14.5352L19.0024 14.5449C18.7985 14.5158 18.5946 14.5546 18.4101 14.6517C17.876 14.642 17.3516 14.7294 16.8272 14.7683C16.2445 14.8071 15.6522 14.778 15.0598 14.778C15.0501 14.7488 15.0307 14.71 14.9918 14.7197C14.7297 14.7488 14.4869 14.6517 14.2247 14.6712L13.7877 14.6517C13.6615 14.5643 13.5061 14.5838 13.3604 14.5449H13.1954L12.9914 14.5352C12.8749 14.4478 12.7195 14.3992 12.5739 14.4187C12.4962 14.3992 12.4185 14.3798 12.3408 14.3604L11.6319 14.1662C11.5057 14.0885 11.3697 14.0497 11.2241 14.0399C11.0493 13.9234 10.8453 13.8457 10.6414 13.7972C10.6317 13.7875 10.622 13.7875 10.6123 13.7875C10.554 13.6806 10.4375 13.7195 10.3501 13.6806C10.3015 13.6806 10.2044 13.6224 10.2627 13.7389C10.3015 13.8457 10.3792 13.9331 10.4763 13.9914C10.6026 14.1662 10.7385 14.3313 10.8939 14.4769C10.9424 14.5158 10.9813 14.5546 11.0201 14.5935L11.4668 14.9722C11.5251 15.011 11.5736 15.0596 11.6319 15.0984L11.7582 15.1373C11.7679 15.2052 11.8164 15.2247 11.8747 15.2344C11.9427 15.2926 11.9815 15.3897 12.0883 15.38C12.098 15.38 12.1077 15.3897 12.1175 15.3995C12.1563 15.4286 12.2049 15.4383 12.2534 15.4674C12.4476 15.6131 12.6904 15.6811 12.904 15.7782C13.1662 15.9044 13.4478 16.0015 13.7392 16.0695C13.9916 16.1278 14.2441 16.1957 14.5063 16.2443C15.089 16.3511 15.6716 16.4191 16.264 16.4385C16.7981 16.4385 17.3419 16.4871 17.876 16.39C18.2935 16.3123 18.7305 16.3608 19.1481 16.254C19.352 16.1957 19.5753 16.2443 19.7793 16.186C20.1677 16.0695 20.5756 16.0404 20.964 15.9433C21.0611 15.8462 21.197 15.8947 21.3039 15.8364C21.3136 15.8364 21.3233 15.8267 21.3427 15.8267C21.6923 15.8073 22.003 15.6811 22.3332 15.5743C22.4303 15.5743 22.5371 15.5548 22.6245 15.5063L22.7022 15.4577C22.9547 15.448 23.1781 15.3509 23.4111 15.2538L23.9064 15.0887C24.0132 15.079 24.12 15.0402 24.1977 14.9722L24.2754 14.9625C24.3822 14.9625 24.489 14.9236 24.5667 14.8459C24.7706 14.8557 24.9454 14.7294 25.1299 14.6614C25.2562 14.6129 25.431 14.6323 25.5184 14.4866C25.8582 14.4575 26.1301 14.273 26.4312 14.1468C26.7516 14.0302 27.0721 13.8943 27.3731 13.7292C27.6159 13.6224 27.8587 13.5253 28.1014 13.399C28.2762 13.3116 28.4801 13.2728 28.6161 13.1271C28.7132 13.1174 28.82 13.098 28.8686 13.0009C29.0725 12.9815 29.2279 12.8649 29.393 12.7484C29.5386 12.7193 29.6649 12.6513 29.7717 12.5445C29.9076 12.5251 30.0145 12.428 30.131 12.3697C30.2281 12.3891 30.2766 12.292 30.3446 12.2532C30.4417 12.2726 30.4611 12.1755 30.5097 12.1269C30.6068 12.1366 30.6942 12.1269 30.7331 12.0104C31.0535 11.8841 31.3545 11.7191 31.6167 11.5054C31.7041 11.5151 31.7915 11.4666 31.8304 11.3986C31.9178 11.3792 32.0052 11.3306 32.0634 11.2627C32.1314 11.2432 32.1897 11.2044 32.2285 11.1461C32.3256 11.1558 32.3742 11.0587 32.4519 11.0199C32.7043 10.8645 32.9374 10.6994 33.1802 10.5343C33.3453 10.5149 33.4521 10.3984 33.5492 10.2916C33.7143 10.2722 33.8017 10.1362 33.9182 10.0488C34.0056 10.0391 34.0736 9.99054 34.1318 9.92257L34.2969 9.80604C34.394 9.81575 34.4134 9.73806 34.462 9.6798C34.5106 9.6798 34.53 9.65067 34.5688 9.63124C34.7339 9.53414 34.8504 9.36905 35.0349 9.30108C35.0932 9.27194 35.132 9.2331 35.1709 9.18455C35.2583 9.17484 35.268 9.08744 35.3263 9.0486C35.3942 9.06802 35.4234 9.02918 35.4525 8.97091C35.5302 8.93207 35.5982 8.8738 35.6467 8.80583C35.7535 8.73785 35.8506 8.66017 35.938 8.56306C36.074 8.5145 36.1808 8.42711 36.2682 8.32029C36.3556 8.33 36.3556 8.2426 36.3944 8.20376L36.5498 8.07752C36.6275 8.07752 36.6955 8.02896 36.7246 7.96099L37.0062 7.6988C37.0548 7.66966 37.1325 7.66966 37.1422 7.59198C37.2004 7.59198 37.2393 7.55313 37.249 7.50458L37.55 7.22297C37.6083 7.22297 37.5792 7.14528 37.6277 7.12586C37.6957 7.11615 37.7248 7.04817 37.7734 7.00933C37.7734 6.99962 37.7637 6.99962 37.754 6.98991L37.7734 6.97049C37.7831 6.97049 37.8025 6.96078 37.8122 6.96078C37.8414 6.96078 37.8608 6.94135 37.8705 6.91222C37.8705 6.90251 37.8802 6.8928 37.8802 6.88309C37.9288 6.85396 37.9773 6.82482 37.9967 6.75685C38.0453 6.71801 38.123 6.72772 38.1327 6.64032C38.3366 6.51408 38.4628 6.31015 38.6279 6.14507C38.6862 6.09651 38.7445 6.04796 38.7833 5.9897L38.861 5.89259C38.9193 5.87317 38.9581 5.82461 38.9775 5.77606L39.1232 5.6304C39.2009 5.60126 39.2591 5.53329 39.2786 5.4556C39.3368 5.2711 39.531 5.21283 39.6184 5.05746C39.9 4.75642 40.1525 4.41655 40.3662 4.05725C40.4633 4.04754 40.4633 3.96014 40.4827 3.90187C40.6089 3.88245 40.5604 3.70766 40.6866 3.67853C40.7158 3.66882 40.7255 3.63968 40.7157 3.61055C40.6963 3.62997 40.6963 3.62997 40.6963 3.62026Z" fill="#EC2227"/>
<path d="M30.0727 19.7693C30.5485 19.4489 30.9078 19.0119 31.3157 18.6234C31.3643 18.5943 31.4031 18.5458 31.4322 18.4972C31.675 18.167 31.9663 17.8757 32.18 17.5164C32.2674 17.4776 32.2771 17.3708 32.345 17.3028C32.3936 17.2639 32.4227 17.196 32.4324 17.1377C32.5295 17.0988 32.5393 17.0212 32.549 16.9241C32.6072 16.8658 32.6946 16.8269 32.6849 16.7201C32.7141 16.6619 32.7529 16.6036 32.8014 16.5453C32.8209 16.4288 32.9471 16.3608 32.9374 16.2249C33.0054 16.186 33.0442 16.1181 33.0442 16.0501C33.0539 16.0307 33.0539 16.0015 33.0636 15.9821C33.0831 15.9044 33.1219 15.8267 33.1802 15.7685C33.3453 15.4092 33.4812 15.0402 33.5977 14.6614C33.8891 13.7778 34.0833 12.8747 34.0444 11.9424C34.1513 11.622 34.0833 11.2918 34.0833 10.9713C34.0833 10.8936 34.0347 10.8936 33.9667 10.9519C33.6463 11.2627 33.3064 11.554 32.986 11.855C32.9471 11.9036 32.9083 11.9424 32.85 11.9715C32.6364 12.1269 32.4324 12.3017 32.2382 12.4765C32.1897 12.5056 32.112 12.5056 32.1023 12.5833C32.044 12.593 31.9955 12.6125 31.9857 12.6707C31.6459 12.8844 31.3351 13.1466 30.9952 13.3602C30.6554 13.5738 30.3058 13.8263 29.9659 14.0594C29.8882 14.0691 29.8105 14.1079 29.762 14.1759C29.6163 14.2245 29.4706 14.273 29.3833 14.4187C29.257 14.3992 29.2182 14.5352 29.1113 14.5546C29.0142 14.5352 28.9851 14.6129 28.9366 14.6711C28.9268 14.6711 28.9171 14.6711 28.9074 14.6809C28.8394 14.7294 28.7715 14.7683 28.6938 14.7974C28.519 14.8362 28.3636 14.9236 28.2471 15.0499C27.9461 15.0887 27.713 15.2829 27.4508 15.4092C27.4411 15.4092 27.4314 15.4092 27.4217 15.4189C27.3343 15.4189 27.2566 15.4674 27.208 15.5354C27.1983 15.5354 27.1886 15.5354 27.1789 15.5451C27.1109 15.5257 27.0429 15.5548 27.0041 15.6228L26.8876 15.6714C26.8002 15.6616 26.7128 15.7102 26.6739 15.7879C26.6642 15.7879 26.6545 15.7879 26.6448 15.7976C26.538 15.7782 26.4215 15.8267 26.3535 15.9141C26.3438 15.9141 26.3341 15.9141 26.3146 15.9238C26.2175 15.9044 26.1107 15.953 26.0622 16.0404C25.9553 16.0404 25.8582 16.0695 25.7708 16.1181C25.6446 16.186 25.5184 16.2443 25.3824 16.2831C24.9843 16.3802 24.6152 16.555 24.2171 16.6619C23.7316 16.7978 23.2557 16.9532 22.7702 17.0406C22.6537 17.1086 22.508 17.0988 22.3818 17.1474L22.1487 17.1571C22.0419 17.2542 21.8865 17.2154 21.7603 17.2639L21.4884 17.2736C21.3427 17.3513 21.1776 17.3222 21.0223 17.3805C20.6047 17.3707 20.1968 17.4679 19.7793 17.497C18.8859 17.565 17.9828 17.5844 17.0894 17.5455C16.565 17.5261 16.0406 17.4679 15.5259 17.3999C15.2443 17.361 14.9724 17.2639 14.6811 17.2639L14.448 17.2542C14.3606 17.1668 14.2344 17.128 14.1082 17.1474C13.8945 17.1377 13.7197 16.9823 13.4964 17.0115C13.3896 16.9241 13.2536 16.8852 13.1177 16.8852C13.0885 16.8658 13.0594 16.8561 13.0303 16.8367C12.5933 16.6716 12.1563 16.5162 11.7193 16.3317C11.4765 16.2249 11.2532 16.0598 10.9813 16.0209C10.9424 15.9336 10.8551 15.9141 10.7677 15.8947C10.7288 15.8656 10.7191 15.7976 10.6414 15.8073C10.622 15.9044 10.6511 15.9918 10.7191 16.0598L10.8356 16.2249C11.0978 16.6424 11.4474 17.0115 11.8553 17.3028C12.0786 17.4679 12.3214 17.6038 12.5544 17.7592C12.603 17.8077 12.6613 17.8369 12.7292 17.8369C13.1177 18.0796 13.5449 18.2544 13.9916 18.3418C14.0111 18.3515 14.0402 18.3612 14.0693 18.3515C14.1373 18.4001 14.2344 18.3904 14.3024 18.4584C14.6131 18.5166 14.9239 18.5943 15.2443 18.6137C15.4968 18.6332 15.6522 18.7594 15.8173 18.9245C15.9824 19.1187 16.1669 19.2935 16.3611 19.4489C16.5553 19.5945 16.6912 19.8082 16.9243 19.8956C17.0505 20.0704 17.2253 20.1966 17.4293 20.2646C17.4681 20.3423 17.5458 20.3908 17.6332 20.3811C17.7983 20.5559 18.0119 20.6821 18.245 20.7598C18.2935 20.8084 18.3227 20.8958 18.4198 20.8763C18.4295 20.8861 18.4392 20.8861 18.4489 20.8861C18.4974 20.954 18.5751 21.0026 18.6625 21.0026L19.2743 21.2939C19.4782 21.3619 19.6725 21.4784 19.8958 21.5075C20.1289 21.6241 20.3813 21.7115 20.6435 21.7406C20.8572 21.8086 21.0611 21.9057 21.2942 21.8766C21.4301 21.9348 21.5855 21.896 21.7117 21.9834C22.139 21.9737 22.5469 22.1096 22.9644 22.1193C23.6636 22.129 24.3628 22.0902 25.0619 21.9931C25.2076 22.0222 25.363 21.9737 25.4795 21.8766L25.6737 21.8668C25.8194 21.8766 25.9651 21.8377 26.0913 21.7503C26.101 21.7503 26.1204 21.7503 26.1301 21.7406C26.2661 21.7309 26.402 21.7406 26.5089 21.6241C26.6351 21.5852 26.7905 21.6338 26.8779 21.4978C27.0041 21.4493 27.1595 21.4978 27.2469 21.3716C27.5673 21.2939 27.8489 21.1385 28.1403 20.9929C28.1888 20.9152 28.2762 20.9055 28.3539 20.8763C28.3636 20.8763 28.383 20.8763 28.3927 20.8666C28.4413 20.8181 28.5093 20.7792 28.5675 20.7598C28.6938 20.7792 28.7229 20.6142 28.8394 20.6142C28.8783 20.5656 28.9268 20.5365 28.9754 20.5073C29.0142 20.4976 29.0628 20.4976 29.0919 20.4782C29.3347 20.2743 29.6163 20.1189 29.8785 19.9247C29.9076 19.8761 30.0339 19.8567 30.0727 19.7693Z" fill="#048ABF"/>
<path d="M48.4067 24.4791C48.1154 24.615 47.9406 24.8578 47.7561 25.1005C47.7075 25.1782 47.6201 25.2171 47.5327 25.2074C47.4453 25.1879 47.4259 25.0908 47.4065 25.0131C47.3871 24.916 47.3871 24.8092 47.3579 24.7121C47.2997 24.4402 47.2802 24.3431 46.9307 24.3431C46.5811 24.3431 46.2412 24.3917 45.911 24.4693C45.4255 24.5956 44.9399 24.7024 44.5127 24.984C44.0563 25.2851 44.0757 25.6735 44.5709 25.9065C44.8137 26.0134 44.8817 26.1979 44.8914 26.4406C44.9011 26.965 44.8914 27.4894 44.8428 28.0138C44.804 28.3634 44.7749 28.6935 44.3864 28.9169C43.998 29.1402 44.066 29.684 44.4738 29.8685C44.9011 30.0628 45.3575 30.0628 45.8042 30.1016C46.2897 30.1307 46.7753 30.121 47.2608 30.0628C47.5327 30.0336 47.8143 30.0142 48.0571 29.8685C48.261 29.7617 48.3776 29.5384 48.3581 29.3053C48.3484 29.082 48.2028 28.9654 48.028 28.878C47.9406 28.8392 47.8532 28.8101 47.7561 28.7906C47.5424 28.7421 47.3968 28.5479 47.4065 28.3245C47.3968 27.9944 47.3191 27.6642 47.3579 27.3923C47.3482 27.1204 47.3579 26.8485 47.3968 26.5766C47.4065 26.4698 47.4745 26.3824 47.5716 26.3435C47.6687 26.3047 47.7367 26.3629 47.8046 26.4212C47.8435 26.4503 47.8726 26.4892 47.9114 26.5183C48.2416 26.7999 48.5524 27.0136 49.0476 26.9553C49.8051 26.8582 50.3489 25.9454 50.1644 25.2948C49.9507 24.4791 49.1641 24.11 48.4067 24.4791Z" fill="#048ABF"/>
<path d="M43.5804 28.9072C43.4056 28.8198 43.2891 28.645 43.2697 28.4508C43.2406 28.276 43.2211 28.1012 43.2211 27.9264C43.2308 27.402 43.2211 26.8873 43.2211 26.3629C43.2211 25.7997 43.2211 25.2365 43.2211 24.6733C43.2211 24.4208 43.1337 24.3431 42.891 24.3431C42.4734 24.3431 42.0656 24.4499 41.6577 24.547C41.1819 24.6441 40.7255 24.7995 40.2788 24.9937C40.0845 25.0714 39.9486 25.2559 39.9583 25.4696C39.968 25.6929 40.104 25.8094 40.2788 25.8968C40.4827 25.9745 40.6186 26.1784 40.6284 26.3921C40.6672 27.0039 40.7449 27.6059 40.6575 28.2177C40.6186 28.509 40.541 28.8004 40.2496 28.9752C40.1331 29.0334 40.0457 29.1402 40.0069 29.2665C39.9389 29.5675 40.1234 29.8588 40.4147 29.9268C40.4244 29.9268 40.4244 29.9268 40.4341 29.9268C40.8614 30.0239 41.2984 30.0822 41.7354 30.0919C42.085 30.1113 42.4346 30.1016 42.7744 30.0531C43.0269 30.0239 43.2794 29.9657 43.5125 29.8685C43.9494 29.6743 44.0271 29.1694 43.5804 28.9072Z" fill="#048ABF"/>
<path d="M41.1333 23.9741C41.6965 23.9838 42.2598 23.8381 42.755 23.5662C43.0561 23.3914 43.2211 23.1293 43.1726 22.7797C43.1337 22.4981 42.9201 22.3427 42.6482 22.2747C41.8034 22.0805 41.0265 22.2844 40.3176 22.7408C40.0069 22.9447 40.0069 23.4886 40.2593 23.7216C40.5118 23.9547 40.8129 23.9741 41.1333 23.9741Z" fill="#048ABF"/>
<path d="M8.5633 32.2477C8.204 32.238 7.82528 32.1797 7.5728 32.5584C7.55338 32.3934 7.55338 32.238 7.58251 32.0729C7.67962 31.6553 7.58251 31.5485 7.17466 31.5776H7.15524C7.08726 31.5679 7.06784 31.6068 7.05813 31.6748C7.029 31.8787 7.01929 32.0923 7.01929 32.306C7.029 32.8498 6.99986 33.3936 6.9416 33.9374C6.90276 34.2578 6.91247 34.2578 7.22321 34.2578C7.26206 34.2578 7.3009 34.2578 7.34945 34.2578C7.44656 34.2675 7.46598 34.2287 7.4854 34.1316C7.53396 33.9179 7.50483 33.6946 7.52425 33.481C7.54367 33.2673 7.55338 33.0343 7.68933 32.8498C7.80586 32.6847 8.0195 32.607 8.21371 32.6555C8.39822 32.6847 8.53417 32.7915 8.53417 32.9857C8.54388 33.2673 8.53417 33.5392 8.50504 33.8111C8.42735 34.3841 8.44677 34.2287 8.91289 34.2481C9.01 34.2481 9.04884 34.2287 9.04884 34.1219C9.05855 33.6752 9.07797 33.2188 9.08768 32.7721C9.0974 32.4905 8.88376 32.2477 8.59243 32.2283C8.57301 32.2477 8.57301 32.2477 8.5633 32.2477Z" fill="#048ABF"/>
<path d="M1.95025 31.7719C1.95996 31.6748 1.97938 31.5679 1.80459 31.5776C1.5424 31.5874 1.2802 31.5776 1.02772 31.5776C0.775243 31.5776 0.50334 31.5874 0.25086 31.5776C0.13433 31.5776 0.105198 31.6165 0.105198 31.733C0.114909 32.3448 0.114909 32.9663 0.0663546 33.5781C0.0663546 33.7043 0.0566438 33.8208 0.0275114 33.9374C-0.0404641 34.219 0.00808985 34.2578 0.279992 34.2578C0.347968 34.2578 0.415943 34.2481 0.483919 34.2578C0.600448 34.2675 0.639292 34.2287 0.639292 34.1122C0.629581 33.8403 0.639292 33.5684 0.629581 33.2868C0.629581 33.1411 0.658713 33.0925 0.804375 33.1022C1.06657 33.112 1.32876 33.0925 1.58124 33.112C1.76574 33.1217 1.73661 33.0148 1.73661 32.908C1.73661 32.8012 1.77545 32.6847 1.59095 32.6944C1.32876 32.7041 1.06657 32.6944 0.814086 32.6944C0.74611 32.6944 0.668424 32.7138 0.678135 32.5973C0.678135 32.4419 0.678135 32.2962 0.678135 32.1409C0.678135 32.0243 0.74611 31.9855 0.86264 31.9855C1.17339 31.9952 1.49384 31.9758 1.80459 31.9952C2.00851 32.0049 1.94054 31.869 1.95025 31.7719Z" fill="#048ABF"/>
<path d="M15.9047 32.2865C15.8464 32.2865 15.7978 32.2865 15.7396 32.2865C15.6522 32.2768 15.6328 32.3157 15.6133 32.4031C15.5842 32.6361 15.5745 32.8789 15.5745 33.112C15.5745 33.3159 15.5259 33.5101 15.4191 33.6849C15.2832 33.8791 15.0792 33.8694 14.8947 33.8403C14.7588 33.8306 14.652 33.714 14.6423 33.5781C14.6423 33.2965 14.6034 33.0148 14.6714 32.7429C14.7588 32.3545 14.6908 32.2671 14.2927 32.2768C14.283 32.2768 14.2635 32.2768 14.2538 32.2768C14.1761 32.2671 14.1373 32.2962 14.147 32.3836C14.1567 32.607 14.0887 32.8303 14.1082 33.0537C14.1179 33.2188 14.1082 33.3741 14.079 33.5392C14.0402 33.7529 14.079 33.9762 14.2635 34.1316C14.5743 34.3744 15.2638 34.3744 15.5454 33.9762C15.4871 34.2384 15.6231 34.287 15.827 34.2481C15.8464 34.2481 15.8658 34.2481 15.8852 34.2481C16.0503 34.2773 16.0892 34.2093 16.0892 34.0442C16.0795 33.5392 16.1086 33.0343 16.1669 32.539C16.1863 32.2865 16.1766 32.2865 15.9047 32.2865Z" fill="#048ABF"/>
<path d="M28.8783 32.5681C28.7715 32.4808 28.6646 32.3836 28.6841 32.238C28.7035 32.0923 28.8297 32.0535 28.956 31.9952C29.2085 31.8884 29.4221 32.0438 29.6649 32.0535C29.6843 31.9272 29.6746 31.8107 29.6357 31.6942C29.6163 31.6456 29.5969 31.5971 29.5483 31.5971C29.2376 31.5776 28.9171 31.5097 28.5967 31.6068C28.2471 31.6942 28.0335 32.0535 28.1208 32.4031C28.15 32.5293 28.218 32.6458 28.3151 32.7332C28.5578 32.9372 28.7909 33.1702 29.0142 33.3936C29.189 33.5684 29.1308 33.7723 28.8977 33.8597C28.8297 33.8888 28.752 33.8985 28.6841 33.8985C28.4413 33.9179 28.2277 33.8014 27.9849 33.7432C28.0043 33.8888 28.014 34.0248 28.0335 34.1704C28.0335 34.219 28.0723 34.219 28.1111 34.219C28.4607 34.2967 28.82 34.3549 29.1793 34.2578C29.7134 34.1219 29.9076 33.5489 29.5483 33.1508C29.3347 32.9372 29.1113 32.7429 28.8783 32.5681Z" fill="#048ABF"/>
<path d="M12.8166 32.5681C12.5836 32.4031 12.5447 32.1894 12.7389 32.0632C12.8749 31.9661 13.0594 31.9272 13.2245 31.9758C13.341 32.0049 13.4673 32.0341 13.5935 32.0729C13.6129 31.9467 13.6032 31.8204 13.5644 31.7039C13.5449 31.6456 13.5255 31.6068 13.4575 31.5971C13.1371 31.5679 12.8166 31.5194 12.4962 31.6262C12.1563 31.733 11.9524 32.0923 12.0592 32.4419C12.0883 32.5487 12.1466 32.6458 12.234 32.7235C12.4768 32.9372 12.7195 33.1702 12.9526 33.3936C13.1274 33.5684 13.0691 33.782 12.8458 33.8597C12.7778 33.8888 12.7001 33.8985 12.6321 33.8985C12.3894 33.9179 12.166 33.8014 11.9232 33.7529C11.9427 33.8985 11.9524 34.0248 11.9621 34.151C11.9621 34.1996 11.9912 34.219 12.0398 34.2287C12.3894 34.3064 12.7487 34.3549 13.108 34.2675C13.642 34.1316 13.8363 33.5684 13.477 33.1702C13.273 32.9372 13.0497 32.7429 12.8166 32.5681Z" fill="#048ABF"/>
<path d="M45.8236 33.8403C45.5323 33.85 45.2313 33.8403 44.9399 33.85C44.7846 33.8597 44.7263 33.8208 44.736 33.646C44.7749 33.0537 44.7943 32.4516 44.8137 31.8496C44.8137 31.7622 44.8817 31.6456 44.8137 31.5971C44.7457 31.5485 44.6292 31.5776 44.5321 31.5776C44.1922 31.5776 44.1825 31.5776 44.2019 31.9175C44.2213 32.4613 44.1825 33.0051 44.1534 33.5587C44.1534 33.7529 44.1437 33.9374 44.1048 34.1219C44.066 34.2578 44.1242 34.2578 44.2213 34.2578H45.0273C45.2992 34.2578 45.5614 34.2481 45.8333 34.2578C46.0178 34.2675 45.9887 34.1607 45.9887 34.0539C45.9887 33.9471 46.0178 33.8306 45.8236 33.8403Z" fill="#048ABF"/>
<path d="M35.1612 32.7429C35.1223 32.8401 35.0932 32.9372 35.0544 33.0246C34.9572 33.2576 34.8601 33.481 34.7533 33.7432C34.6368 33.3839 34.5494 33.0634 34.4426 32.7429C34.394 32.5876 34.4134 32.3739 34.2775 32.306C34.1415 32.238 33.9473 32.2865 33.7434 32.2865C33.9279 32.8109 34.1027 33.3159 34.2775 33.8208C34.4329 34.2675 34.4329 34.2675 34.9087 34.2578C34.9864 34.2675 35.0641 34.219 35.0835 34.1413C35.2486 33.7432 35.4234 33.3547 35.6079 32.9566C35.705 32.7332 35.8118 32.5099 35.9089 32.2865C35.3554 32.2671 35.3554 32.2671 35.1612 32.7429Z" fill="#048ABF"/>
<path d="M10.5929 32.2768C10.2336 32.2671 10.2336 32.2574 10.2238 31.8981C10.2238 31.869 10.2238 31.8398 10.2141 31.801C10.1365 31.8301 10.0588 31.8496 9.98108 31.8593C9.77715 31.8593 9.69946 31.9369 9.71889 32.1409C9.7286 32.238 9.66062 32.306 9.54409 32.2865C9.37901 32.2574 9.39843 32.3739 9.39843 32.471C9.39843 32.5681 9.38872 32.6847 9.5538 32.6555C9.59265 32.6458 9.69946 32.6264 9.68004 32.7041C9.60236 32.9469 9.68004 33.1994 9.63149 33.4518C9.59265 33.6752 9.54409 33.9277 9.71889 34.1316C9.85484 34.2967 10.4181 34.3744 10.5929 34.2384C10.6705 34.151 10.7094 34.0248 10.6705 33.9082C10.6511 33.8111 10.5637 33.8888 10.5055 33.8888C10.2044 33.8888 10.1753 33.8694 10.1753 33.5684V33.0731C10.1753 32.675 10.1753 32.6653 10.5831 32.6555C10.7482 32.6555 10.7191 32.5584 10.7094 32.471C10.6997 32.3836 10.7579 32.2865 10.5929 32.2768Z" fill="#048ABF"/>
<path d="M47.3385 32.2768C47.222 32.2768 47.0569 32.3351 46.9889 32.2477C46.9209 32.1603 46.9695 31.9952 46.9598 31.869C46.9598 31.8496 46.9501 31.8301 46.9501 31.801C46.8724 31.8301 46.785 31.8496 46.6976 31.8593C46.5325 31.8593 46.4451 31.9175 46.4645 32.102C46.4743 32.1991 46.4354 32.2962 46.2995 32.2768C46.1052 32.2477 46.1441 32.3739 46.1344 32.4905C46.115 32.6458 46.2024 32.6555 46.3189 32.6458C46.348 32.6458 46.3869 32.6555 46.416 32.6555C46.4063 32.7138 46.3966 32.7818 46.3869 32.8401C46.3771 33.0731 46.3869 33.2965 46.348 33.5295C46.3189 33.782 46.28 34.0733 46.5616 34.219C46.7753 34.3355 47.0375 34.3161 47.2802 34.2384C47.455 34.1899 47.4065 34.0248 47.4065 33.9082C47.4162 33.7723 47.29 33.8791 47.2414 33.8791C46.9501 33.8694 46.921 33.8597 46.921 33.5684V33.0731C46.921 32.6653 46.9209 32.6555 47.3288 32.6361C47.4745 32.6264 47.4648 32.5487 47.455 32.4613C47.4453 32.3739 47.5133 32.2768 47.3385 32.2768Z" fill="#048ABF"/>
<path d="M26.6545 32.2768C26.2952 32.2671 26.2952 32.2574 26.2855 31.8981C26.2855 31.869 26.2855 31.8398 26.2758 31.801C26.2078 31.8204 26.1398 31.8398 26.0622 31.8496C25.8777 31.8593 25.7514 31.9078 25.7805 32.1312C25.7903 32.2283 25.7223 32.2962 25.6058 32.2768C25.4407 32.2477 25.4601 32.3642 25.4601 32.4613C25.4601 32.5584 25.4504 32.675 25.6155 32.6458C25.7126 32.6264 25.7223 32.6555 25.7223 32.7721C25.7223 33.1314 25.6543 33.4907 25.6737 33.85C25.6737 34.0636 25.8194 34.2481 26.033 34.2772C26.2272 34.3161 26.4312 34.3064 26.6157 34.2481C26.771 34.1899 26.7225 34.0345 26.7322 33.9277C26.7419 33.782 26.6254 33.8888 26.5768 33.8888C26.2758 33.8888 26.2467 33.8694 26.2467 33.5684V33.0731C26.2467 32.675 26.2467 32.6653 26.6448 32.6555C26.8002 32.6555 26.7808 32.5584 26.7808 32.471C26.7808 32.3836 26.8196 32.2865 26.6545 32.2768Z" fill="#048ABF"/>
<path d="M38.6279 32.2865C38.2492 32.2186 37.8608 32.17 37.5015 32.3739C37.0354 32.6264 36.9285 33.4518 37.2004 33.9082C37.3947 34.2384 37.7248 34.3064 38.0744 34.3064C38.5794 34.3064 38.5794 34.3064 38.6571 33.8208C38.3269 33.8888 37.987 34.0151 37.7248 33.7043C37.55 33.5004 37.55 33.1022 37.7442 32.8498C38.0162 32.5099 38.3657 32.6361 38.725 32.7235C38.725 32.6264 38.725 32.539 38.725 32.4516C38.725 32.3836 38.7056 32.306 38.6279 32.2865Z" fill="#048ABF"/>
<path d="M42.1432 32.607C42.3277 32.6167 42.5122 32.5876 42.6968 32.6847C42.6676 32.6167 42.6676 32.5487 42.687 32.4808C42.7162 32.3351 42.6385 32.2768 42.5122 32.2574C42.2792 32.2283 42.0461 32.2283 41.8131 32.2574C41.5994 32.2768 41.4343 32.4322 41.3761 32.6361C41.3275 32.8206 41.3858 33.0246 41.5412 33.1508C41.6771 33.277 41.8228 33.3839 41.9684 33.4907C42.0753 33.5781 42.153 33.6849 42.0947 33.8014C42.0461 33.8985 41.9296 33.9277 41.8131 33.9374C41.6577 33.9471 41.512 33.8888 41.3567 33.85C41.3178 33.8403 41.2596 33.7917 41.2498 33.8306C41.2304 33.9374 41.2304 34.0442 41.2401 34.1607C41.2498 34.2481 41.3275 34.2578 41.3955 34.2675C41.5994 34.3064 41.8034 34.3258 42.0073 34.3064C42.3763 34.2773 42.5705 34.1413 42.6385 33.9277C42.7162 33.6946 42.6385 33.5004 42.3666 33.277C42.2501 33.1799 42.1335 33.1022 42.017 33.0051C41.9393 32.9469 41.8713 32.8595 41.9102 32.7624C41.949 32.6653 42.0461 32.607 42.1432 32.607Z" fill="#048ABF"/>
<path d="M2.93104 31.5874C2.77567 31.5874 2.62029 31.5874 2.45521 31.5874C2.39695 31.5874 2.40666 31.6456 2.40666 31.6845C2.41637 31.8398 2.36781 31.9952 2.36781 32.1506C2.37752 32.6361 2.31926 33.1217 2.31926 33.6072C2.31926 33.7043 2.30955 33.8014 2.29013 33.8888C2.21244 34.1996 2.27071 34.2675 2.60087 34.2675C2.64943 34.1899 2.87277 34.3938 2.85335 34.1316C2.83393 33.714 2.8922 33.2965 2.8922 32.8886C2.8922 32.4905 2.92133 32.0923 2.96988 31.6942C2.97959 31.6359 2.9893 31.5874 2.93104 31.5874Z" fill="#048ABF"/>
<path d="M33.6657 32.3642C33.6754 32.2574 33.6269 32.2477 33.5298 32.238C33.287 32.2088 33.0442 32.3254 32.9277 32.539C32.9277 32.5002 32.9277 32.4613 32.918 32.4225C32.9083 32.3739 32.9568 32.2768 32.8597 32.2768C32.7043 32.2768 32.549 32.238 32.3936 32.2962C32.3839 32.2962 32.3839 32.3351 32.3839 32.3545C32.3839 32.607 32.3742 32.8692 32.3839 33.1217C32.4033 33.4518 32.3353 33.7723 32.3353 34.1025C32.3353 34.1996 32.3548 34.2578 32.4713 34.2481C32.5587 34.2384 32.6461 34.2384 32.7432 34.2481C32.8306 34.2578 32.8791 34.2287 32.8791 34.1219C32.8791 33.8597 32.8986 33.5878 32.9083 33.3256C32.9374 32.8789 33.0831 32.7041 33.5298 32.6847C33.6269 32.6847 33.6754 32.6653 33.6657 32.5584C33.656 32.5002 33.656 32.4322 33.6657 32.3642Z" fill="#048ABF"/>
<path d="M25.3047 32.3739C25.3144 32.2768 25.2853 32.2477 25.1785 32.238C24.9357 32.2088 24.6929 32.3254 24.5764 32.5487C24.5667 32.4905 24.5667 32.471 24.5667 32.4613C24.5473 32.4031 24.6152 32.2962 24.5084 32.2962C24.3531 32.2768 24.1977 32.2768 24.0423 32.306C24.0326 32.306 24.0326 32.3448 24.0326 32.3642C24.0132 32.8595 24.052 33.345 23.9938 33.8403C23.9452 34.2675 23.984 34.287 24.4016 34.2578C24.489 34.2481 24.5279 34.2384 24.5181 34.1413C24.5181 33.8694 24.5376 33.5975 24.5473 33.3256C24.5764 32.8886 24.7318 32.7041 25.1591 32.6944C25.2659 32.6944 25.3144 32.6653 25.295 32.5584C25.295 32.5002 25.295 32.4322 25.3047 32.3739Z" fill="#048ABF"/>
<path d="M3.93125 32.306C3.83414 32.2477 3.67877 32.2962 3.55253 32.2865C3.42629 32.2768 3.38745 32.3254 3.39716 32.4516C3.42629 32.8983 3.33889 33.3353 3.35831 33.7723C3.35831 33.8208 3.3486 33.8694 3.32918 33.9082C3.26121 34.2093 3.30005 34.2578 3.60108 34.2578C3.89241 34.2578 3.89241 34.2578 3.89241 33.9665C3.87299 33.5295 3.97009 33.1022 3.93125 32.6653C3.92154 32.539 4.05749 32.3836 3.93125 32.306Z" fill="#048ABF"/>
<path d="M36.3362 32.2768C36.1517 32.2671 36.1225 32.3351 36.1225 32.5002C36.1323 32.9857 36.1031 33.481 36.0449 33.9665C36.0157 34.2481 36.0254 34.2578 36.3168 34.2578C36.6275 34.2578 36.6275 34.2578 36.6178 33.9374C36.6081 33.5004 36.6761 33.0634 36.6663 32.6264C36.6663 32.2865 36.6955 32.2962 36.3362 32.2768Z" fill="#048ABF"/>
<path d="M50.5431 33.7237C50.2129 33.7334 50.2129 33.7237 50.2129 33.9956C50.2129 34.2675 50.2129 34.2578 50.4848 34.2578C50.7859 34.2578 50.7664 34.2578 50.7956 33.9568C50.815 33.7432 50.7276 33.714 50.5431 33.7237Z" fill="#048ABF"/>
<path d="M3.436 31.8884C3.60108 31.9369 3.77588 31.9369 3.94096 31.8884C4.02836 31.869 3.96038 31.7039 3.9701 31.6068C3.9701 31.5874 3.96038 31.5582 3.95067 31.5388C3.82443 31.6068 3.68848 31.5874 3.55253 31.5776C3.50398 31.5776 3.42629 31.5 3.40687 31.5971C3.38745 31.6942 3.3486 31.869 3.436 31.8884Z" fill="#048ABF"/>
<path d="M36.511 31.5874C36.4527 31.5679 36.3847 31.6068 36.3265 31.5776C36.1031 31.4805 36.1225 31.6165 36.1225 31.7622C36.1128 32.0146 36.307 31.8593 36.3944 31.9175C36.4916 31.8787 36.6372 31.9758 36.6858 31.8593C36.7246 31.7719 36.7246 31.6748 36.6858 31.5776C36.6566 31.5 36.579 31.6068 36.511 31.5874Z" fill="#048ABF"/>
<path d="M9.76744 11.3501C9.79657 11.486 9.85484 11.6122 9.95195 11.7191C10.2336 12.1269 10.5929 12.4765 11.0201 12.729C11.1367 12.797 11.2241 12.9232 11.3794 12.9329C11.8358 13.2048 12.3311 13.3699 12.8555 13.4282C12.9526 13.5253 13.0982 13.5641 13.2342 13.5447L13.5061 13.5544C13.7683 13.6904 14.0596 13.6806 14.3412 13.6612C14.448 13.6709 14.5452 13.6709 14.652 13.6709C15.7299 13.6612 16.8078 13.7292 17.8857 13.535C18.0896 13.535 18.2935 13.5641 18.4683 13.4185L18.7888 13.4087C18.9733 13.4282 19.1675 13.3893 19.3326 13.2922L19.4103 13.2825C19.857 13.2631 20.2939 13.1368 20.7309 13.0397C21.197 12.9815 21.6437 12.8261 22.0904 12.7193C22.2652 12.6513 22.4595 12.6416 22.6245 12.5542C22.7896 12.5542 22.945 12.5154 23.0809 12.428C23.2849 12.4377 23.45 12.292 23.6539 12.292C23.7121 12.2337 23.7898 12.1949 23.8675 12.1852L24.0229 12.1755C24.12 12.1561 24.2268 12.1658 24.2851 12.0589C24.557 12.0298 24.8192 11.9424 25.0522 11.8065C25.2562 11.7579 25.4601 11.6899 25.664 11.6122C25.8291 11.5734 25.9845 11.5151 26.1301 11.4375C26.2175 11.4375 26.3146 11.4083 26.3923 11.3695C26.402 11.3695 26.4117 11.3695 26.4215 11.3598C26.5477 11.3015 26.6934 11.3112 26.7905 11.1947C26.907 11.2044 27.0138 11.1656 27.0915 11.0782C27.276 11.0102 27.4605 10.9519 27.645 10.8839C27.8295 10.816 27.9655 10.7189 28.15 10.6897C28.1888 10.6315 28.2665 10.6217 28.3248 10.5829C28.3345 10.5829 28.3442 10.5829 28.3539 10.5732C28.451 10.5635 28.5578 10.5635 28.6064 10.4567C28.7423 10.4567 28.8686 10.3984 28.9754 10.311C29.1599 10.2722 29.3347 10.1945 29.4901 10.0877C29.5969 10.0877 29.7037 10.0391 29.7717 9.96141C29.8591 9.93228 29.9465 9.89344 30.0145 9.83517C30.131 9.8643 30.199 9.79633 30.2669 9.71864H30.3446C30.3932 9.66038 30.4514 9.62153 30.5097 9.5924C30.5485 9.5924 30.5874 9.60211 30.6068 9.58269C30.7913 9.46616 30.9952 9.39819 31.1797 9.29137C31.3643 9.18455 31.5779 9.12628 31.7333 8.9612C31.8109 8.97091 31.8789 8.94178 31.9372 8.88351C32.1508 8.78641 32.3548 8.66988 32.549 8.54364C32.7238 8.4174 32.9471 8.38826 33.0928 8.22318C33.1899 8.2426 33.219 8.16491 33.2676 8.10665C33.4424 8.08723 33.5492 7.96099 33.6754 7.86388C33.8988 7.77648 34.1124 7.65024 34.2969 7.48516C34.5106 7.39776 34.6756 7.23268 34.8699 7.09673C35.4622 6.68887 36.0157 6.23247 36.5692 5.77606C36.744 5.6304 36.88 5.4556 37.0451 5.30994C37.2587 5.11572 37.4529 4.9118 37.6277 4.67874C37.7928 4.5525 37.919 4.38741 38.0064 4.1932C38.055 4.17378 38.1035 4.16407 38.1133 4.09609C38.123 4.08638 38.123 4.06696 38.1133 4.05725C38.123 4.04754 38.123 4.03783 38.123 4.02811C38.2201 3.97956 38.2492 3.91159 38.2298 3.78534L38.0647 3.96985L37.919 4.06696C37.9093 4.15436 37.7928 4.13493 37.7831 4.22233C37.7151 4.23204 37.6666 4.2806 37.6568 4.34857C37.4723 4.43597 37.317 4.56221 37.2004 4.71758C36.948 4.85353 36.7246 5.01862 36.5207 5.22254C36.4333 5.23225 36.3459 5.24196 36.307 5.33907C36.2488 5.33907 36.2002 5.37792 36.1905 5.42647C35.9672 5.53329 35.773 5.69837 35.569 5.82461C35.5205 5.9023 35.4331 5.91201 35.3554 5.95085C35.3457 5.95085 35.336 5.95085 35.3263 5.96056C35.2971 5.99941 35.2389 6.00912 35.2097 6.04796L34.9184 6.21304C34.8699 6.2616 34.7922 6.28102 34.7436 6.32957C34.6077 6.32957 34.53 6.43639 34.4232 6.49466C33.9765 6.73743 33.5298 6.9802 33.0831 7.21326C32.6849 7.42689 32.2771 7.6114 31.8595 7.77648C31.8304 7.81533 31.7721 7.82504 31.743 7.85417C31.5876 7.86388 31.4808 8.00954 31.3254 8.01925C31.238 8.00954 31.1506 8.0581 31.1118 8.13578C31.1021 8.13578 31.0924 8.13578 31.0826 8.14549C30.9952 8.13578 30.9078 8.18434 30.8593 8.26202C30.8496 8.26202 30.8399 8.26202 30.8302 8.27173L30.7039 8.28144C30.6359 8.29115 30.568 8.33 30.5291 8.38826C30.5194 8.38826 30.5097 8.38826 30.5 8.39797C30.3932 8.39797 30.2961 8.40768 30.2378 8.5145C30.1116 8.54364 29.9756 8.54364 29.8785 8.64074C29.6552 8.6893 29.4512 8.76698 29.257 8.88351C29.1308 8.8738 29.0142 8.92236 28.9268 9.00975C28.7035 9.10686 28.451 9.13599 28.2374 9.26223C28.1208 9.24281 28.0043 9.29137 27.9363 9.37876C27.645 9.4079 27.3925 9.52443 27.1206 9.64096C26.9653 9.60211 26.839 9.71864 26.7031 9.75749C26.3438 9.8643 25.9845 9.9517 25.6349 10.0779C25.4795 10.1362 25.3047 10.1265 25.1688 10.243C24.8386 10.311 24.5181 10.3887 24.1977 10.4955C24.0714 10.4664 23.9452 10.5149 23.8578 10.612C23.615 10.5732 23.4014 10.7286 23.1683 10.748C23.013 10.7383 22.8673 10.7383 22.7508 10.8645L22.6245 10.8839C22.3041 10.9422 21.9836 11.0005 21.6632 11.0684C21.6535 11.0684 21.6437 11.0976 21.634 11.117L21.4787 11.1267C21.2747 11.1656 21.0514 11.1461 20.8572 11.2529C20.7212 11.2724 20.5756 11.2821 20.4396 11.2918C20.3813 11.3015 20.3037 11.2724 20.2745 11.3598L19.721 11.4375C19.7016 11.4277 19.6725 11.4375 19.653 11.4472C19.352 11.4957 19.0413 11.5151 18.7499 11.6122C18.5266 11.6122 18.3032 11.6317 18.0799 11.6802C17.6332 11.7773 17.1671 11.7191 16.7204 11.8065C16.3222 11.8842 15.9144 11.8647 15.5162 11.8647C14.4286 11.8939 13.341 11.855 12.2631 11.7288C12.0398 11.6802 11.8164 11.6899 11.5931 11.6122L10.2433 11.2432C10.1753 11.1073 10.0102 11.1558 9.9131 11.0782C9.84513 11.0296 9.74802 10.9616 9.68004 11.0296C9.61207 11.0976 9.68004 11.1947 9.70918 11.2724C9.70918 11.3015 9.73831 11.3306 9.76744 11.3501Z" fill="#048ABF"/>
<path d="M12.9817 10.1071C13.04 10.175 13.1274 10.2236 13.2245 10.2236C13.409 10.3887 13.6226 10.5052 13.8557 10.5829C14.0499 10.6897 14.0305 10.6897 14.0693 10.4761C14.1082 10.2333 14.1761 9.99054 14.2344 9.75749C14.2927 9.52443 14.3704 9.25252 14.4383 9.00004C14.5257 8.90294 14.5646 8.78641 14.5549 8.66017C14.6714 8.45624 14.7588 8.23289 14.8073 7.99983C14.9239 7.83475 15.0016 7.65995 15.0501 7.46574C15.1278 7.4366 15.1666 7.36863 15.1666 7.29094C15.1861 7.18412 15.3123 7.13557 15.2929 7.00933C15.3511 6.96078 15.4191 6.93164 15.4094 6.83454C15.691 6.36842 16.0212 5.93143 16.3805 5.52358C16.7786 5.0963 17.1962 4.69816 17.6526 4.33886C17.7983 4.29031 17.9245 4.20291 18.0119 4.08638C18.0702 4.04754 18.1187 4.00869 18.177 3.96014C18.2741 3.96014 18.3227 3.89216 18.3906 3.84361L18.682 3.67853C18.8859 3.562 19.1092 3.50373 19.2937 3.34836C19.5074 3.31923 19.7016 3.23183 19.8764 3.10559C20.1386 3.07646 20.3619 2.95022 20.6144 2.87253C20.7504 2.83369 20.9154 2.83369 21.032 2.72687H21.1097C21.2942 2.74629 21.4495 2.6686 21.6049 2.61034C21.9351 2.61034 22.2458 2.44525 22.5857 2.47439C22.809 2.52294 23.0324 2.42583 23.2557 2.43554C23.7995 2.44525 24.3433 2.42583 24.8969 2.47439L25.1396 2.4841C25.3338 2.58121 25.5475 2.62005 25.7708 2.60063L26.0136 2.64918C26.1301 2.71716 26.2564 2.73658 26.3923 2.72687H26.4312C26.7031 2.8434 26.9944 2.93079 27.2954 2.97935C27.4702 3.09588 27.6644 3.18328 27.8781 3.21241C27.8878 3.22212 27.8975 3.22212 27.9072 3.22212C27.9558 3.32894 28.0626 3.33865 28.1597 3.33865C28.2374 3.41633 28.3345 3.46489 28.4413 3.4746C28.4801 3.55229 28.5287 3.60084 28.6161 3.59113C28.7132 3.63968 28.8103 3.68824 28.888 3.75621C29.4609 4.13493 29.995 4.5525 30.4223 5.0963C30.5485 5.22254 30.5583 5.41676 30.4611 5.55271C30.3543 5.70808 30.2281 5.85374 30.0921 5.97999C30.0242 5.9897 30.0047 6.03825 29.995 6.0868C29.9076 6.0868 29.8882 6.1742 29.8397 6.22276C29.762 6.21304 29.6843 6.2616 29.6649 6.33928C29.558 6.32957 29.5192 6.41697 29.4706 6.47524C29.3833 6.47524 29.2959 6.49466 29.257 6.59177C29.0822 6.65003 28.9171 6.73743 28.7715 6.84425C28.587 6.90251 28.4025 6.98991 28.2374 7.08702C28.082 7.14528 27.8975 7.14528 27.781 7.29094C27.6547 7.32979 27.4994 7.29094 27.4022 7.41718C27.3051 7.42689 27.208 7.45603 27.1206 7.50458L26.6642 7.65995L26.5477 7.66966C26.4312 7.67937 26.3341 7.73764 26.2564 7.82504C26.9458 7.8833 27.6353 7.8833 28.3151 7.82504C28.383 7.81533 28.4607 7.84446 28.4899 7.75706C28.7035 7.73764 28.9171 7.76677 29.1113 7.63082C29.1987 7.62111 29.2861 7.62111 29.3735 7.60169C29.9368 7.47545 30.4806 7.28123 30.9952 7.01904C31.5002 6.76656 31.9663 6.43639 32.3742 6.05767C32.4422 5.9897 32.5198 5.93143 32.4324 5.82461C32.413 5.74693 32.4227 5.64982 32.3159 5.61098C32.3159 5.55271 32.2771 5.50416 32.2285 5.49445C32.044 5.19341 31.8401 4.90209 31.607 4.63018C31.3643 4.32915 31.0924 4.04754 30.801 3.78534C30.4903 3.50373 30.2087 3.18328 29.8299 2.97935C29.8202 2.91137 29.7717 2.89195 29.7134 2.89195C29.7134 2.80455 29.6163 2.82398 29.5775 2.77542C29.5386 2.69774 29.4609 2.64918 29.3735 2.64918C28.7132 2.17335 27.9849 1.79463 27.208 1.53244C26.8487 1.32851 26.4506 1.21198 26.0427 1.17314C26.033 1.16343 26.0233 1.16343 26.0039 1.16343C25.9068 1.0469 25.7611 1.05661 25.6252 1.0469C25.1008 0.901238 24.557 0.862395 24.0132 0.813841C23.1586 0.736155 22.2944 0.833263 21.4495 0.988635C21.2068 1.03719 20.9446 1.02748 20.7212 1.17314C20.663 1.16343 20.6144 1.16343 20.5561 1.17314C20.226 1.27996 19.8861 1.38678 19.5656 1.51302C19.4588 1.55186 19.3326 1.54215 19.2646 1.64897C19.216 1.66839 19.1675 1.6781 19.1092 1.69752C18.7791 1.8529 18.4489 2.00827 18.1284 2.17335C17.9536 2.26075 17.7594 2.34815 17.6332 2.52294C17.5458 2.53265 17.4584 2.54236 17.4195 2.63947C17.3613 2.64918 17.303 2.67831 17.2545 2.72687C17.1962 2.79484 17.0797 2.79484 17.0505 2.89195C16.9923 2.89195 16.9437 2.91137 16.934 2.97935C16.7204 3.13472 16.5262 3.32894 16.3125 3.49402C15.9921 3.75621 15.7007 4.04754 15.4385 4.36799C15.3803 4.3777 15.3317 4.39713 15.3317 4.4651C15.254 4.62047 15.089 4.70787 15.0307 4.87295C14.9336 4.85353 14.9433 4.93122 14.9336 4.98948C14.8656 4.99919 14.8268 5.05746 14.8268 5.12544C14.6423 5.28081 14.5452 5.50416 14.4092 5.68866C14.3606 5.73722 14.3315 5.79548 14.3218 5.86346C14.2247 5.9023 14.215 5.97999 14.2053 6.07709C14.079 6.19362 13.9819 6.349 13.9528 6.51408C13.8751 6.54321 13.8363 6.61119 13.846 6.68887C13.7877 6.82482 13.7294 6.97049 13.6615 7.10644C13.5741 7.27152 13.5061 7.44632 13.4673 7.63082C13.3119 7.82504 13.273 8.0581 13.2245 8.29116C13.1177 8.50479 13.0497 8.73785 13.0108 8.98062C12.9623 9.29137 12.8263 9.5924 12.8361 9.91286C12.8555 10.01 12.8555 10.0974 12.9817 10.1071Z" fill="#048ABF"/>
<path d="M35.8992 22.7311C35.4719 22.2164 34.9475 21.9154 34.2484 22.0416C33.7046 22.1388 33.219 22.5078 33.2481 23.2167C33.2676 23.7605 33.1608 24.2945 32.9374 24.7898C32.4519 25.9454 31.9178 27.0815 31.3837 28.208C31.1992 28.5964 30.937 28.8683 30.5194 29.0043C30.3738 29.0334 30.2572 29.1305 30.2087 29.2665C30.0921 29.6064 30.2572 29.8977 30.6262 29.9754C31.2963 30.1113 31.976 30.1404 32.6558 30.0531C32.8306 30.0336 32.9957 29.9851 33.1608 29.9171C33.4035 29.8103 33.5783 29.6549 33.5492 29.3733C33.5201 29.1208 33.3355 29.0431 33.1413 28.9654C33.0734 28.946 33.0151 28.9169 32.9471 28.9072C32.9083 28.8975 32.8694 28.8683 32.8597 28.8295C32.7626 28.5964 32.986 28.1983 33.2384 28.1692C33.3744 28.1594 33.5103 28.1303 33.6366 28.1206C34.2289 28.1012 34.8213 28.1303 35.4137 28.1983C35.7341 28.2371 35.9186 28.4993 35.8215 28.7615C35.7632 28.9072 35.6273 28.9363 35.5011 28.9849C35.2097 29.0917 35.0738 29.2762 35.1709 29.519C35.268 29.7714 35.4913 29.9462 35.7535 29.9657C36.3556 30.0531 36.9577 30.0919 37.5597 30.0919C37.7442 30.0919 37.9288 30.1016 38.1133 30.0919C38.2978 30.0822 38.492 30.0725 38.6862 30.0433C39.0066 30.0045 39.3465 29.9657 39.6184 29.7617C39.7447 29.6646 39.8709 29.383 39.8418 29.2471C39.8029 29.0528 39.6864 28.9169 39.4922 28.9072C39.2106 28.8878 39.0552 28.7324 38.9484 28.4993C38.424 27.402 37.919 26.3047 37.3849 25.2074C36.9383 24.3528 36.5207 23.4788 35.8992 22.7311ZM35.0738 26.732C34.831 26.8194 34.5882 26.7417 34.3455 26.7805C34.1221 26.7514 33.9085 26.7999 33.6851 26.7514C33.5395 26.7222 33.5006 26.6349 33.5395 26.5183C33.6948 26.1202 33.8405 25.7123 34.025 25.3239C34.1318 25.0811 34.3746 25.0617 34.5203 25.2753C34.7825 25.6541 35.0058 26.0619 35.1903 26.4892C35.2486 26.6349 35.1903 26.6834 35.0738 26.732Z" fill="#048ABF"/>
<path d="M6.34924 32.2768C6.04821 32.238 5.73746 32.2283 5.42671 32.238C5.21308 32.238 5.00915 32.2962 4.83436 32.4128C4.40708 32.6847 4.26142 33.0828 4.32939 33.5781C4.39737 34.0442 4.77609 34.3549 5.30047 34.2675C5.51411 34.2287 5.70833 34.1219 5.85399 33.9471C5.85399 34.0927 5.85399 34.1899 5.85399 34.287C5.84428 34.5977 5.57238 34.8405 5.26163 34.8211C5.25192 34.8211 5.24221 34.8211 5.2325 34.8211C4.98973 34.7919 4.74696 34.7434 4.5139 34.6754C4.48477 35.0347 4.52361 35.1027 4.7858 35.1609C5.06741 35.2095 5.35874 35.2289 5.64035 35.1998C6.08705 35.1706 6.38808 34.8793 6.38808 34.4618C6.38808 33.782 6.45606 33.112 6.47548 32.4419C6.48519 32.3254 6.45606 32.2962 6.34924 32.2768ZM5.94139 32.7527C5.89283 33.0343 5.94139 33.3256 5.80544 33.5878C5.69862 33.8208 5.44614 33.9471 5.20337 33.8888C5.00915 33.8403 4.8732 33.6266 4.8732 33.3644C4.85378 32.7721 5.35874 32.5487 5.87341 32.6458C5.94139 32.6653 5.9511 32.7041 5.94139 32.7527Z" fill="#048ABF"/>
<path d="M20.5853 32.2962C20.1289 32.1797 19.6725 32.2283 19.216 32.3254C19.1578 32.3351 19.1286 32.3545 19.1286 32.4128C19.1578 32.5973 19.0801 32.7721 19.0898 32.9566C19.1189 33.4907 19.0413 34.0248 19.051 34.5589C19.051 34.5977 19.0413 34.6366 19.0315 34.6754C18.9344 35.093 19.0218 35.1998 19.4297 35.1706C19.5171 35.1609 19.5462 35.1318 19.5462 35.0541C19.5462 34.7239 19.6239 34.3938 19.5753 34.0151L19.7599 34.1413C20.0803 34.3549 20.6241 34.4035 20.9154 34.0345C21.1388 33.7626 21.2359 33.3936 21.1679 33.044C21.1194 32.6847 20.9543 32.3934 20.5853 32.2962ZM20.5076 33.7043C20.4105 33.8791 20.1774 33.9471 19.9541 33.8888C19.7501 33.8208 19.6142 33.6266 19.6142 33.413C19.6142 33.3256 19.6142 33.2382 19.6142 33.1411V33.0828C19.6142 32.7041 19.6336 32.6847 19.9444 32.6167C20.1968 32.5681 20.4493 32.6847 20.5658 32.9177C20.7115 33.1896 20.6532 33.4518 20.5076 33.7043Z" fill="#048ABF"/>
<path d="M17.9051 32.2574C17.4972 32.1991 17.0894 32.2283 16.6912 32.3157C16.6427 32.3157 16.6136 32.3545 16.6136 32.4031V32.4128C16.6038 32.6167 16.5747 32.8206 16.5747 33.0246C16.5747 33.6072 16.5456 34.1801 16.4873 34.7628C16.4388 35.1609 16.4582 35.1706 16.8466 35.1706C16.9729 35.1706 17.0214 35.1415 17.0214 35.0056C17.0214 34.6851 17.0894 34.3744 17.0505 34.0151C17.1476 34.083 17.2059 34.1219 17.2739 34.1607C17.5749 34.3549 18.0993 34.3744 18.3712 34.0539C18.6043 33.7917 18.7111 33.4421 18.6625 33.0925C18.6043 32.6361 18.4295 32.3351 17.9051 32.2574ZM18.0022 33.7043C17.9051 33.8694 17.6915 33.9374 17.4681 33.8888C17.2545 33.8306 17.1088 33.646 17.1088 33.4324C17.0991 33.3353 17.1088 33.2382 17.1088 33.1411V33.0828C17.1088 32.7041 17.1282 32.6847 17.439 32.6167C17.6915 32.5681 17.9439 32.6847 18.0605 32.9177C18.1964 33.1896 18.1381 33.4518 18.0022 33.7043Z" fill="#048ABF"/>
<path d="M49.8051 31.6068C49.708 31.5485 49.5526 31.5971 49.4263 31.5874C49.3098 31.5777 49.271 31.6068 49.271 31.733C49.271 31.8981 49.3487 32.1312 49.2321 32.2186C49.1156 32.306 48.902 32.238 48.7369 32.2477C48.3193 32.2671 47.9794 32.4128 47.7949 32.8206C47.6881 33.0537 47.6493 33.3062 47.6687 33.5587C47.6978 34.0053 48.1154 34.2967 48.4553 34.3064C48.7563 34.3161 49.0379 34.1801 49.2224 33.9471C49.1544 34.2384 49.1641 34.2578 49.4555 34.2578C49.5137 34.2578 49.5623 34.2578 49.6206 34.2578C49.708 34.2675 49.7371 34.2287 49.7371 34.1413C49.7177 33.4033 49.7953 32.675 49.8148 31.9369C49.7953 31.8204 49.9022 31.665 49.8051 31.6068ZM49.0865 33.6266C48.9894 33.8403 48.7466 33.9471 48.5232 33.8791C48.3484 33.8403 48.2028 33.6266 48.1931 33.413C48.1736 33.0731 48.2805 32.8012 48.6009 32.6458C48.7757 32.5584 48.9699 32.5973 49.1544 32.607C49.2224 32.607 49.2224 32.6555 49.2224 32.7041V32.9274C49.2418 33.1702 49.1933 33.413 49.0865 33.6266Z" fill="#048ABF"/>
<path d="M22.3818 32.2477C21.8477 32.2962 21.401 32.8012 21.4398 33.3256C21.4884 33.9568 21.9059 34.3064 22.5177 34.3064C22.8964 34.3064 23.2169 34.1899 23.45 33.8791C23.7219 33.5101 23.7024 32.8109 23.3626 32.5002C23.0712 32.2477 22.7314 32.2186 22.3818 32.2477ZM23.0809 33.1994C23.0809 33.5878 22.9353 33.8306 22.6537 33.8791C22.3138 33.9374 22.1099 33.8306 22.0322 33.5101C21.9836 33.3159 22.003 33.1022 22.0904 32.9177C22.207 32.675 22.44 32.5584 22.7508 32.6458C22.9644 32.7429 23.1004 32.9663 23.0809 33.1994Z" fill="#048ABF"/>
<path d="M39.4145 32.4419C39.1523 32.675 39.0552 32.976 39.0261 33.3062C38.9969 33.714 39.2397 34.1025 39.6281 34.2384C39.8515 34.3258 40.0845 34.3064 40.3079 34.3064C40.7352 34.3064 40.7449 34.2967 40.842 33.8985C40.842 33.8791 40.8517 33.8597 40.8517 33.8306C40.5992 33.9277 40.337 33.9665 40.0748 33.9471C39.8224 33.9179 39.6184 33.714 39.5893 33.4615C39.5796 33.3353 39.6087 33.277 39.7544 33.2868C40.1137 33.2965 40.4827 33.2868 40.842 33.2868C40.9294 33.2868 41.0265 33.2965 41.0362 33.1605C41.0556 32.976 41.0168 32.7818 40.9197 32.6167C40.6478 32.1894 39.7932 32.102 39.4145 32.4419ZM40.2982 33.0246H39.6184C39.667 32.6847 39.9292 32.4905 40.2399 32.5779C40.337 32.5973 40.4147 32.6555 40.4536 32.7429C40.5604 32.9274 40.5118 33.0246 40.2982 33.0246Z" fill="#048ABF"/>
<path d="M30.3932 32.4419C30.1407 32.675 30.0533 32.9663 30.0145 33.2868C29.9853 33.6558 30.1795 34.0151 30.5097 34.1801C30.8204 34.3355 31.1409 34.2967 31.4614 34.287C31.7138 34.2772 31.8498 34.1704 31.8207 33.8985C31.8207 33.8791 31.8595 33.8597 31.8304 33.8306C31.7138 33.8597 31.5876 33.8888 31.4711 33.918C31.3351 33.9374 31.1992 33.9374 31.0632 33.9374C30.801 33.9179 30.5971 33.714 30.5777 33.4518C30.568 33.3256 30.6068 33.2673 30.7428 33.277C31.1021 33.2868 31.4711 33.277 31.8304 33.277C31.9081 33.277 32.0052 33.2965 32.0149 33.1702C32.044 32.9857 32.0052 32.7915 31.9178 32.6167C31.6459 32.1894 30.7719 32.0923 30.3932 32.4419ZM31.2769 33.0246H30.6068C30.6554 32.6847 30.9176 32.4905 31.2283 32.5779C31.3254 32.5973 31.4031 32.6555 31.4419 32.7429C31.539 32.9274 31.4905 33.0246 31.2769 33.0246Z" fill="#048ABF"/>
<path d="M5.63064 27.3632C5.52382 26.8388 5.88312 26.1687 5.17423 25.7317C5.01886 25.6346 4.99944 25.2559 5.37816 25.0714C6.07734 24.7218 6.83478 24.5373 7.56309 24.2848C7.8447 24.1877 8.15545 24.2945 8.18458 24.6733C8.25256 25.5472 8.63128 25.1103 8.90318 24.8384C9.40814 24.3334 9.92281 24.1295 10.6414 24.3819C11.7776 24.7898 12.0786 25.1879 12.1369 26.664C12.1563 27.1495 12.1466 27.6351 12.1369 28.1206C12.1272 28.4411 12.1563 28.7227 12.4379 28.9557C12.9235 29.3733 12.5739 29.8006 12.234 29.8685C11.3989 30.0433 10.554 30.2958 9.67033 29.9559C9.18479 29.7617 9.0974 29.4607 9.31103 29.1208C9.83542 28.2857 9.47612 27.402 9.54409 26.5475C9.57323 26.2367 9.27219 26.0231 8.91289 25.9842C8.43706 25.9357 8.27198 26.3338 8.25256 26.6057C8.19429 27.3826 8.00008 28.1886 8.47591 28.9266C8.79636 29.4219 8.59243 29.752 8.09718 29.9074C7.28148 30.1696 6.43664 30.2376 5.63064 29.9171C5.32961 29.8006 4.75667 29.6064 5.36845 29.0431C5.81515 28.6159 5.5918 27.9555 5.63064 27.3632Z" fill="#EC1C24"/>
<path d="M3.73704 26.1882C3.83414 26.7611 3.59137 27.47 3.8827 28.1594C3.97981 28.3925 3.97981 28.645 4.28084 28.7324C4.58187 28.8198 4.63043 29.0723 4.59159 29.3539C4.56245 29.6258 4.38766 29.7035 4.13518 29.7617C3.04757 30.0336 1.95996 30.1987 0.843218 29.9171C0.318835 29.7812 0.182884 29.3345 0.561605 28.9169C0.911194 28.5285 1.01801 28.1109 0.998591 27.6059C0.97917 26.7514 0.969459 25.8871 0.998591 25.0326C1.02772 24.3043 1.01801 23.6342 0.328546 23.1487C-0.0501749 22.8768 0.0566438 22.5078 0.474208 22.3815C1.74632 21.9834 3.01844 21.7892 4.30997 22.333C4.74696 22.5175 4.6984 22.9253 4.46535 23.0516C3.56224 23.576 3.75646 24.4208 3.72733 25.2074C3.72733 25.4987 3.73704 25.7803 3.73704 26.1882Z" fill="#EC1C24"/>
</svg>
